<svg width="32" height="32" viewBox="0 0 2000 2000" fill="none" xmlns="http://www.w3.org/2000/svg">
<path d="M0 0 C101.97 0 203.94 0 309 0 C309 505.89 309 1011.78 309 1533 C207.03 1533 105.06 1533 0 1533 C0 1027.11 0 521.22 0 0 Z " fill="#000000" transform="translate(1374,233)"/>
<path d="M0 0 C101.97 0 203.94 0 309 0 C309 505.89 309 1011.78 309 1533 C207.03 1533 105.06 1533 0 1533 C0 1027.11 0 521.22 0 0 Z " fill="#000000" transform="translate(845,233)"/>
<path d="M0 0 C101.97 0 203.94 0 309 0 C309 505.89 309 1011.78 309 1533 C207.03 1533 105.06 1533 0 1533 C0 1027.11 0 521.22 0 0 Z " fill="#000000" transform="translate(317,233)"/>
</svg> 